<?xml version="1.0" encoding="utf-8"?>
<!-- Generator: Adobe Illustrator 16.0.0, SVG Export Plug-In . SVG Version: 6.00 Build 0)  -->
<!DOCTYPE svg PUBLIC "-//W3C//DTD SVG 1.1//EN" "http://www.w3.org/Graphics/SVG/1.1/DTD/svg11.dtd">
<svg version="1.1" xmlns="http://www.w3.org/2000/svg" xmlns:xlink="http://www.w3.org/1999/xlink" x="0px" y="0px"
	 width="667.487px" height="653.997px" viewBox="0 0 667.487 653.997" enable-background="new 0 0 667.487 653.997"
	 xml:space="preserve">
<g id="Layer_2">
</g>
<g id="Layer_4">
	<circle cx="334.525" cy="323.164" r="316.217"/>
	<g opacity="0.8">
		
			<ellipse fill="none" stroke="#F5D4D7" stroke-width="12" stroke-miterlimit="10" stroke-dasharray="33.4618,57.7977" cx="334.525" cy="323.163" rx="289.99" ry="290.963"/>
	</g>
</g>
<g id="Layer_3">
	<g>
		<g>
			<path fill="#F5D4D7" d="M190.872,232.146l-0.784-0.319c-3.285-1.335-7.532,1.201-12.741,7.606l-18.969,23.34l-7.849-3.19
				l3.422-29.321l-18.234,23.301l-7.393-3.005l4.312-38.838c0.229-2.068-0.535-3.461-2.297-4.177l-1.355-0.552l0.406-0.997
				l21.058,8.559l-0.406,0.998l-0.713-0.29c-0.856-0.349-1.462-0.083-1.817,0.792c-0.093,0.228-0.176,0.49-0.247,0.784
				l-2.836,24.164l9.737-12.241l0.924-8.244c0.202-1.858-0.312-3.04-1.55-3.543l-0.641-0.261l0.405-0.999l20.487,8.328l-0.405,0.998
				l-0.856-0.349c-1.097-0.446-1.869-0.111-2.32,0.997c-0.094,0.231-0.15,0.506-0.167,0.821l-3.492,24.854l10.145-12.492
				c1.197-1.497,2.096-2.979,2.691-4.447c0.77-1.891,0.948-3.526,0.54-4.905c-0.411-1.379-1.141-2.282-2.186-2.706l-1.428-0.581
				l0.406-1l14.562,5.919l-0.407,0.999h-0.002V232.146z"/>
			<path fill="#F5D4D7" d="M224.23,277.563c-1.566,3.854-3.258,6.382-5.079,7.582c-2.165,1.505-5.007,1.543-8.529,0.111
				c-2.76-1.121-4.772-2.717-6.039-4.783c-0.897-1.478-1.432-3.162-1.604-5.062c-0.125-1.602-0.139-2.386-0.044-2.347
				c-0.095-0.039-0.472,0.273-1.131,0.94c-0.83,0.816-1.629,1.479-2.393,1.994c-2.728,1.801-5.924,1.958-9.588,0.468
				c-3.713-1.509-6.33-3.661-7.854-6.464c-1.521-2.801-1.668-5.719-0.434-8.754c1.137-2.797,2.933-4.691,5.387-5.683
				c1.832-0.692,4.132-0.891,6.896-0.597c1.915,0.337,3.83,0.673,5.746,1.01c3.144,0.449,5.49,0.407,7.036-0.125
				c2.693-0.893,4.83-3.287,6.41-7.173c1.214-2.987,1.575-5.243,1.086-6.77c-0.423-1.277-1.54-2.282-3.347-3.017
				c-1.571-0.639-3.239-0.932-5.008-0.881c-1.767,0.052-2.761,0.351-2.983,0.897c-0.111,0.274-0.073,0.449,0.119,0.526
				c0.093,0.038,0.214,0.088,0.356,0.146c0.189,0.077,0.332,0.135,0.428,0.174c1.76,0.716,2.979,1.946,3.658,3.69
				c0.675,1.745,0.658,3.498-0.058,5.261c-0.832,2.046-2.274,3.511-4.325,4.396c-2.051,0.885-4.052,0.93-6.002,0.137
				c-2-0.812-3.465-2.22-4.394-4.228c-0.932-2.009-0.935-4.15-0.01-6.424c1.156-2.846,3.499-4.653,7.03-5.427
				c3.959-0.877,8.676-0.203,14.148,2.021c5.093,2.069,8.736,4.7,10.935,7.889c2.196,3.19,2.542,6.638,1.036,10.343l-9.934,24.438
				c-0.694,1.709-0.549,2.764,0.437,3.164c0.797,0.324,1.867-0.155,3.209-1.44c1.34-1.284,2.484-3.093,3.434-5.428
				c0.135-0.332,0.269-0.663,0.405-0.996L224.23,277.563L224.23,277.563z M209.728,255.946c0.097-0.237,0.073-0.385-0.068-0.441
				c-0.05-0.021-0.416,0.135-1.104,0.464c-0.938,0.392-1.777,0.687-2.522,0.88c-1.938,0.541-3.232,1.064-3.884,1.575
				c-2.066,1.536-3.918,4.321-5.557,8.354l-2.083,5.124c-0.812,2.544-0.623,4.058,0.566,4.541c1.143,0.465,2.804-0.213,4.985-2.035
				c2.183-1.821,3.747-3.895,4.692-6.219L209.728,255.946L209.728,255.946z"/>
			<path fill="#F5D4D7" d="M270.306,308.267l-22.271-9.052l0.349-0.856l0.858,0.349c1.616,0.657,2.812,0.033,3.586-1.87
				l11.315-27.84c1.431-3.521,1.006-5.745-1.279-6.674c-1.428-0.581-3.023-0.232-4.792,1.046c-1.768,1.279-3.192,3.25-4.275,5.915
				l-9.894,24.342c-0.677,1.665-0.373,2.76,0.911,3.281l1.357,0.552l-0.349,0.856l-22.771-9.256l0.348-0.855l2.142,0.869
				c2.283,0.929,3.9,0.229,4.846-2.1l12.278-30.206c0.829-2.042,0.435-3.395-1.183-4.052l-2.427-0.986l0.405-0.998l18.773,7.631
				l-2.088,5.139c3.005-3.712,7.603-4.312,13.789-1.798c3.235,1.314,5.562,3.371,6.977,6.164c1.584,3.194,1.575,6.767-0.03,10.717
				l-9.806,24.126c-0.755,1.855-0.468,3.056,0.865,3.598l2.714,1.103L270.306,308.267L270.306,308.267z"/>
			<path fill="#F5D4D7" d="M317.848,327.59l-18.987-7.717l2.64-6.495c-3.402,4.271-7.624,5.382-12.669,3.332
				c-3.951-1.606-6.452-4.897-7.504-9.88s-0.483-10.168,1.706-15.555c2.189-5.389,5.694-9.614,10.52-12.682
				c4.823-3.066,9.234-3.786,13.23-2.162c4.284,1.741,6.099,5.252,5.452,10.533l7.66-18.845c0.562-1.382,0.562-2.685,0.006-3.907
				c-0.472-1.023-1.159-1.719-2.063-2.086l-2.784-1.132l0.349-0.856l21.058,8.559l-21.876,53.821
				c-0.639,1.572-0.078,2.716,1.684,3.432l1.927,0.783L317.848,327.59L317.848,327.59z M306.94,299.991
				c2.461-6.054,3.824-10.918,4.097-14.584c0.27-3.115-0.312-4.963-1.74-5.544c-1.761-0.716-3.983,1.688-6.67,7.207
				c-0.397,0.84-1.922,4.526-4.575,11.058c-3.373,8.296-5.251,13.117-5.632,14.463c-0.536,2.004-0.188,3.257,1.051,3.76
				c1.474,0.6,3.238-0.126,5.295-2.181C301.481,311.44,304.207,306.716,306.94,299.991z"/>
			<path fill="#F5D4D7" d="M366.998,322.281c-0.464,1.142-1.339,1.453-2.623,0.931l-20.13-8.182
				c-0.36,0.742-0.699,1.519-1.028,2.328c-2.805,6.899-4.136,11.876-3.99,14.928c0.109,2.597,1.473,4.427,4.09,5.489
				c3.761,1.529,7.618,1.378,11.58-0.449c3.779-1.794,6.381-4.449,7.812-7.972l0.998,0.406c-1.565,3.855-4.307,6.707-8.218,8.555
				c-4.443,2.074-9.19,2.085-14.237,0.034c-6.138-2.495-10.348-6.325-12.627-11.495c-2.28-5.17-2.201-10.752,0.236-16.748
				c2.379-5.854,6.366-10,11.961-12.439c5.392-2.355,10.707-2.47,15.943-0.342c5.425,2.205,9.017,5.857,10.771,10.949
				C369.112,312.855,368.932,317.523,366.998,322.281z M353.454,316.112c2.959-7.281,4.6-11.661,4.92-13.139
				c0.554-2.325-0.009-3.829-1.688-4.512c-1.681-0.683-3.427,0.104-5.238,2.361c-1.87,2.4-4.159,6.793-6.867,13.181l6.624,2.692
				c0.674,0.273,1.087,0.414,1.254,0.425C352.85,317.114,353.185,316.777,353.454,316.112z"/>
			<path fill="#F5D4D7" d="M411.893,328.884c-0.986,2.427-2.493,4.089-4.52,4.983c-2.029,0.896-4.041,0.936-6.04,0.124
				c-1.715-0.698-3.037-1.983-3.966-3.858c-0.928-1.874-1.016-3.739-0.261-5.595c0.851-2.093,2.202-3.541,4.052-4.342
				c1.851-0.799,3.679-0.835,5.49-0.099c0.998,0.405,1.877,0.973,2.637,1.697c0.758,0.723,1.112,1.076,1.068,1.058
				c0.238,0.097,0.405,0.026,0.502-0.212c0.271-0.666,0.034-1.524-0.703-2.574c-0.736-1.048-1.798-1.854-3.178-2.415
				c-1.952-0.793-3.915-0.729-5.895,0.183c-2.591,1.055-4.625,3.39-6.095,7.006l-10.242,25.198
				c-0.871,2.143-0.612,3.495,0.768,4.056l2.712,1.103l-0.348,0.855l-25.628-10.416l0.349-0.855l2.428,0.986
				c2.425,0.986,4.055,0.459,4.886-1.584l12.364-30.422c0.887-2.184,0.453-3.635-1.308-4.351l-2.427-0.986l0.406-0.998l19.06,7.746
				l-1.443,4.571c3.588-3.368,7.237-4.296,10.947-2.787c2.19,0.89,3.726,2.471,4.604,4.739
				C412.99,323.966,412.918,326.361,411.893,328.884z"/>
			<path fill="#F5D4D7" d="M427.922,372.33l-25.128-10.214l0.406-0.999l2.142,0.871c2.283,0.928,3.88,0.276,4.788-1.955
				l19.735-48.557c0.848-2.088,0.297-3.529-1.653-4.322l-1.93-0.784l0.406-0.999l19.774,8.037l-21.415,52.687
				c-0.908,2.234-0.504,3.698,1.209,4.396l2.071,0.842L427.922,372.33z"/>
			<path fill="#F5D4D7" d="M477.175,392.348l-18.774-7.631l2.089-5.141c-3.007,3.716-7.603,4.313-13.791,1.799
				c-3.236-1.316-5.561-3.371-6.979-6.158c-1.587-3.193-1.577-6.761,0.024-10.701l9.788-24.081c0.732-1.804,0.435-2.979-0.898-3.521
				l-2.714-1.103l0.406-0.998l18.915,7.688l-12.794,31.479c-1.45,3.57-1.011,5.828,1.323,6.776c1.428,0.58,3.027,0.22,4.805-1.077
				c1.774-1.298,3.193-3.255,4.255-5.867l9.874-24.291c0.656-1.615,0.343-2.685-0.943-3.207l-1.427-0.58l0.405-0.998l17.274,7.021
				l-14.101,34.69c-0.83,2.046-0.439,3.399,1.181,4.058l2.427,0.986L477.175,392.348L477.175,392.348z"/>
			<path fill="#F5D4D7" d="M522.484,395.877c-1.953,4.806-5.344,7.754-10.164,8.843c-3.783,0.846-7.507,0.526-11.169-0.962
				c-2.336-0.95-4.832-2.575-7.501-4.879c-2.667-2.303-4.476-3.649-5.43-4.037c-2.237-0.909-3.884-0.746-4.939,0.488l-0.642-0.261
				l7.312-17.99l0.642,0.261c-0.717,3.536-0.314,7.913,1.213,13.139c1.822,6.396,4.773,10.423,8.854,12.08
				c4.033,1.64,6.803,0.604,8.312-3.108c1.103-2.713-0.041-5.7-3.428-8.961c-6.006-5.822-9.138-8.9-9.395-9.225
				c-3.068-4.187-3.605-8.729-1.612-13.633c1.547-3.807,4.499-6.294,8.854-7.462c4.109-1.103,8.306-0.784,12.586,0.955
				c1.666,0.677,3.57,1.895,5.71,3.651c2.144,1.758,3.45,2.733,3.93,2.929c1.616,0.657,2.647,0.439,3.093-0.657l0.714,0.29
				l-5.425,13.348l-0.502-0.203c0.628-3.182,0.404-6.518-0.673-10.006c-1.32-4.252-3.648-7.056-6.979-8.41
				c-1.665-0.677-3.176-0.748-4.528-0.218c-1.353,0.531-2.31,1.488-2.87,2.868c-1.218,2.996-0.154,6.037,3.197,9.118
				c3.153,2.89,6.277,5.769,9.382,8.637C524.029,386.411,524.517,390.879,522.484,395.877z"/>
			<path fill="#F5D4D7" d="M551.81,407.63c-3.83,9.421-9.387,12.654-16.666,9.695c-3.283-1.335-5.605-3.059-6.966-5.165
				c-1.515-2.282-1.719-4.78-0.613-7.5l12.47-30.68l-3.926-1.595l0.406-1l2.417,0.981c3.745,1.522,7.802,1.592,12.177,0.211
				c4.641-1.495,7.726-4.124,9.254-7.884l0.969,0.477l-5.688,13.991l6.639,2.698l-0.405,0.998l-6.639-2.697l-13.17,32.402
				c-0.833,2.051-0.657,3.316,0.533,3.8c1.047,0.425,2.318-0.108,3.815-1.609c1.668-1.65,3.181-4.141,4.534-7.473L551.81,407.63
				L551.81,407.63z"/>
		</g>
		<g>
			<path fill="#F5D4D7" d="M272.724,324.415c-2.043-0.83-5.356,0.969-7.129,3.153l-4.115,5.063l-2.043-0.83
				c0,0,5.717-7.117,7.009-8.606c0.41-0.519,0.565-1.1-0.298-1.45c-2.042-0.83-5.279,0.88-7.137,3.069l-4.041,5.174l-2.076-0.844
				c0,0,4.94-6.3,6.128-7.834c1.343-1.714,2.868-0.895,2.868-0.895l0.088-0.123l-3.321-1.35l0.09-0.125l3.74,1.521l-2.622,3.371
				c1.897-1.69,4.539-2.836,6.342-2.103c1.385,0.562,2.429,2.155,1.391,3.428l-1.042,1.271c1.917-1.64,4.429-2.757,6.228-2.025
				c1.387,0.562,2.397,2.143,1.355,3.414l-4.474,5.646c-0.72,0.877-1.279,2.062-0.206,2.498c1.52,0.618,3.159-0.53,3.977-1.852
				l0.124,0.091c-0.867,1.341-2.565,2.547-4.157,1.899c-1.664-0.677-2.807-2.23-1.34-4.054c0,0,3.667-4.56,4.927-6.064
				C273.4,325.336,273.557,324.754,272.724,324.415z"/>
			<path fill="#F5D4D7" d="M289.653,331.376l-5.989,7.691c-0.649,0.904-1.246,2.075-0.172,2.512
				c1.521,0.618,3.109-0.511,3.943-1.865l0.139,0.057c-0.85,1.389-2.513,2.609-4.139,1.949c-1.939-0.788-2.542-2.486-1.269-4.228
				l-0.088-0.077c-1.688,1.375-3.872,2.18-5.188,1.645c-2.354-0.957-2.698-2.789-1.901-4.644c1.403-3.263,6.309-6.594,9.979-5.102
				c1.662,0.675,1.373,2.371,0.724,3.681c0.81-1.001,1.544-1.914,1.956-2.433L289.653,331.376L289.653,331.376z M282.929,336.508
				c0.595-0.766,1.376-1.699,2.153-2.716c0.854-1.307,1.734-3.571-0.171-4.345c-2.458-1-7.285,3.533-8.546,6.731
				c-0.521,1.282-0.42,2.331,0.581,2.738C278.438,339.522,281.267,338.213,282.929,336.508z"/>
			<path fill="#F5D4D7" d="M287.642,343.265c0,0,4.94-6.3,6.129-7.835c1.34-1.715,2.865-0.895,2.865-0.895l0.09-0.123l-3.324-1.352
				l0.092-0.124l3.738,1.52l-2.62,3.373c1.896-1.691,4.472-2.864,6.305-2.119c1.386,0.563,2.398,2.145,1.357,3.415l-4.475,5.646
				c-0.721,0.875-1.316,2.047-0.208,2.496c1.488,0.605,3.225-0.585,3.979-1.851l0.125,0.091c-0.869,1.34-2.567,2.547-4.16,1.899
				c-1.662-0.676-2.805-2.229-1.338-4.053c0,0,3.666-4.561,4.927-6.065c0.412-0.518,0.567-1.1-0.265-1.438
				c-2.077-0.845-5.277,0.881-7.103,3.083l-4.039,5.174L287.642,343.265L287.642,343.265L287.642,343.265z"/>
			<path fill="#F5D4D7" d="M317.859,342.841l-5.989,7.69c-0.65,0.904-1.245,2.075-0.171,2.512c1.521,0.618,3.11-0.509,3.943-1.864
				l0.138,0.057c-0.848,1.39-2.514,2.609-4.139,1.949c-1.939-0.789-2.541-2.486-1.269-4.229l-0.087-0.075
				c-1.688,1.373-3.873,2.178-5.188,1.644c-2.354-0.957-2.698-2.79-1.901-4.645c1.403-3.262,6.31-6.592,9.977-5.101
				c1.663,0.675,1.375,2.37,0.727,3.68c0.81-1.001,1.542-1.913,1.955-2.432L317.859,342.841L317.859,342.841z M311.136,347.973
				c0.594-0.767,1.375-1.699,2.151-2.717c0.855-1.307,1.735-3.571-0.17-4.345c-2.458-0.999-7.285,3.534-8.545,6.731
				c-0.521,1.283-0.422,2.331,0.58,2.738C306.645,350.987,309.474,349.679,311.136,347.973z"/>
			<path fill="#F5D4D7" d="M316.171,356.312c-0.56-0.711-0.853-1.476-0.528-2.273c0.773-1.901,3.292-2.05,4.505-1.557
				c0.312,0.127,0.649,0.386,0.816,0.574l-0.056,0.137c-0.235-0.215-0.575-0.473-0.887-0.599c-1.107-0.451-2.733-0.225-3.197,0.917
				c-0.943,2.319,7.782,4.373,6.432,7.696c-0.703,1.73-3.961,3.794-8.497,1.95c-2.562-1.041-3.475-2.862-2.854-4.387
				C312.396,357.562,313.845,356.577,316.171,356.312z M316.246,356.424c-2.276,0.245-3.728,1.229-4.205,2.405
				c-0.591,1.454,0.28,3.181,2.771,4.193c3.256,1.323,6.05,0.604,6.8-0.947C322.346,360.274,318.053,358.529,316.246,356.424z
				 M333.787,348.991c0.267-0.657,0.13-1.602-1.014-2.066c-1.003-0.407-2.096-0.003-2.476,0.931
				c-0.112,0.277-0.171,0.616-0.146,0.95c0.212,0.571,0.173,1.16-0.052,1.714c-0.872,2.146-4.394,3.86-7.993,2.396
				c-2.388-0.97-2.928-2.519-2.38-3.869c0.873-2.146,4.409-3.896,7.974-2.447c1.213,0.492,1.95,1.156,2.321,1.832
				c0-0.2,0.053-0.421,0.138-0.631c0.393-0.968,1.631-1.434,2.669-1.012c1.35,0.549,1.42,1.665,0.982,2.74
				c-0.392,0.966-1.485,1.573-2.523,1.151c-0.555-0.225-0.744-0.749-0.479-1.404C331.722,350.007,333.267,350.273,333.787,348.991z
				 M321.304,350.332c-0.422,1.038-0.248,1.996,0.93,2.476c2.322,0.944,5.512-1.351,6.37-3.462c0.45-1.107,0.254-2.114-0.991-2.621
				C325.43,345.838,322.163,348.22,321.304,350.332z"/>
			<path fill="#F5D4D7" d="M338.518,360.273c-1.236,1.354-3.657,2.346-5.77,1.487c-2.599-1.057-3.016-3-2.242-4.903
				c1.337-3.289,6.269-6.49,10.213-4.887c1.629,0.662,2.322,1.832,1.788,3.146c-0.634,1.559-3.599,3.097-6.783,1.802
				c-0.656-0.267-1.341-0.666-1.97-1.207c-0.77,0.898-1.399,1.854-1.765,2.755c-0.577,1.417-0.464,2.633,0.817,3.153
				c2.043,0.83,4.428-0.178,5.601-1.475L338.518,360.273z M333.831,355.625c0.395,0.319,0.837,0.622,1.354,0.833
				c2.46,1,5.593-1.155,6.213-2.679c0.31-0.764,0.167-1.306-0.733-1.672C338.831,351.364,335.863,353.306,333.831,355.625z"/>
			<path fill="#F5D4D7" d="M359.625,359.737c-2.042-0.831-5.354,0.968-7.129,3.151l-4.115,5.065l-2.043-0.832
				c0,0,5.718-7.115,7.008-8.606c0.412-0.517,0.567-1.099-0.297-1.449c-2.042-0.831-5.28,0.879-7.137,3.069l-4.043,5.173
				l-2.077-0.845c0,0,4.94-6.3,6.128-7.834c1.343-1.714,2.867-0.894,2.867-0.894l0.09-0.124l-3.322-1.35l0.089-0.125l3.74,1.521
				l-2.621,3.371c1.896-1.689,4.538-2.835,6.341-2.104c1.385,0.563,2.43,2.157,1.39,3.43l-1.043,1.269
				c1.919-1.639,4.429-2.756,6.227-2.025c1.387,0.563,2.399,2.144,1.358,3.415l-4.475,5.646c-0.72,0.877-1.281,2.061-0.207,2.497
				c1.521,0.618,3.161-0.529,3.978-1.852l0.125,0.091c-0.868,1.341-2.566,2.547-4.158,1.9c-1.664-0.677-2.807-2.23-1.34-4.054
				c0,0,3.668-4.56,4.93-6.064C360.302,360.656,360.458,360.075,359.625,359.737z"/>
			<path fill="#F5D4D7" d="M369.907,373.031c-1.233,1.354-3.656,2.347-5.77,1.488c-2.597-1.056-3.015-3-2.241-4.903
				c1.337-3.289,6.268-6.491,10.214-4.887c1.627,0.661,2.323,1.833,1.789,3.146c-0.634,1.558-3.599,3.096-6.784,1.801
				c-0.656-0.267-1.344-0.666-1.971-1.206c-0.768,0.898-1.399,1.852-1.765,2.753c-0.576,1.419-0.465,2.633,0.816,3.154
				c2.043,0.829,4.429-0.179,5.601-1.476L369.907,373.031z M365.221,368.384c0.396,0.319,0.837,0.622,1.355,0.833
				c2.456,0.998,5.593-1.154,6.213-2.68c0.31-0.763,0.167-1.305-0.734-1.671C370.22,364.122,367.253,366.064,365.221,368.384z"/>
			<path fill="#F5D4D7" d="M371.22,377.234c0,0,4.938-6.3,6.128-7.835c1.341-1.715,2.865-0.895,2.865-0.895l0.091-0.122
				l-3.322-1.352l0.091-0.124l3.739,1.52l-2.622,3.372c1.896-1.69,4.471-2.863,6.307-2.117c1.384,0.562,2.396,2.143,1.354,3.413
				l-4.472,5.647c-0.721,0.875-1.316,2.047-0.209,2.496c1.488,0.605,3.225-0.586,3.979-1.851l0.123,0.09
				c-0.868,1.341-2.566,2.547-4.159,1.9c-1.661-0.676-2.804-2.229-1.337-4.053c0,0,3.665-4.561,4.926-6.066
				c0.41-0.518,0.568-1.099-0.264-1.438c-2.078-0.845-5.279,0.882-7.101,3.084l-4.044,5.173l-2.075-0.843L371.22,377.234
				L371.22,377.234z"/>
			<path fill="#F5D4D7" d="M397.021,375.177l-2.526-1.026l-5.917,7.519c-0.686,0.888-1.248,2.074-0.141,2.523
				c1.489,0.606,3.188-0.6,3.947-1.864l0.088,0.076c-0.833,1.354-2.497,2.575-4.092,1.928c-1.661-0.676-2.84-2.245-1.406-4.082
				c0,0,3.768-4.801,5.443-6.943l-0.936-0.381l0.092-0.123l0.936,0.38c0.168-0.215,0.334-0.43,0.477-0.571
				c1.45-1.79,3.123-0.748,4.33-2.232l0.105,0.042l-2.838,3.607l2.525,1.026L397.021,375.177z"/>
		</g>
		<line fill="none" stroke="#DEDEDE" stroke-width="0.5" x1="106.768" y1="264.107" x2="246.165" y2="320.766"/>
		<line fill="none" stroke="#DEDEDE" stroke-width="0.5" x1="401.262" y1="383.805" x2="540.34" y2="440.332"/>
	</g>
</g>
</svg>
