<?xml version="1.0" encoding="utf-8"?>
<!-- Generator: Adobe Illustrator 16.0.0, SVG Export Plug-In . SVG Version: 6.00 Build 0)  -->
<!DOCTYPE svg PUBLIC "-//W3C//DTD SVG 1.1//EN" "http://www.w3.org/Graphics/SVG/1.1/DTD/svg11.dtd">
<svg version="1.1" id="Layer_3" xmlns="http://www.w3.org/2000/svg" xmlns:xlink="http://www.w3.org/1999/xlink" x="0px" y="0px"
	 width="503.975px" height="122.994px" viewBox="0 0 503.975 122.994" enable-background="new 0 0 503.975 122.994"
	 xml:space="preserve">
<g>
	<path fill="#F5D4D7" d="M79.095,33.511h-0.874c-3.657,0-6.73,4.073-9.22,12.216l-9.061,29.67h-8.739l-8.118-29.347l-8.375,29.347
		h-8.231L15.513,36.611c-0.585-2.066-1.856-3.1-3.817-3.1h-1.509v-1.112h23.446v1.112h-0.794c-0.954,0-1.43,0.488-1.43,1.462
		c0,0.255,0.023,0.537,0.069,0.846l6.676,24.192l4.549-15.48l-2.318-8.236c-0.529-1.855-1.48-2.784-2.858-2.784h-0.713v-1.112
		h22.811v1.112h-0.954c-1.221,0-1.829,0.619-1.829,1.853c0,0.258,0.052,0.542,0.159,0.85l6.316,25.105l4.842-15.877
		c0.562-1.895,0.845-3.66,0.845-5.294c0-2.106-0.464-3.739-1.39-4.897c-0.928-1.159-1.976-1.739-3.14-1.739h-1.589v-1.112h16.213
		v1.112H79.095z"/>
	<path fill="#F5D4D7" d="M128.611,63.953c0,4.292-0.635,7.364-1.909,9.219c-1.484,2.278-4.185,3.419-8.107,3.419
		c-3.073,0-5.615-0.742-7.628-2.226c-1.432-1.062-2.597-2.466-3.498-4.214c-0.742-1.481-1.06-2.225-0.954-2.225
		c-0.106,0-0.345,0.445-0.715,1.338c-0.477,1.103-0.982,2.047-1.512,2.834c-1.907,2.781-4.9,4.172-8.981,4.172
		c-4.133,0-7.47-1.041-10.014-3.127c-2.542-2.086-3.815-4.817-3.815-8.196c0-3.114,0.98-5.622,2.941-7.523
		c1.482-1.372,3.602-2.455,6.357-3.247c1.961-0.422,3.922-0.845,5.883-1.267c3.178-0.792,5.404-1.743,6.675-2.852
		c2.227-1.9,3.339-5.017,3.339-9.345c0-3.326-0.531-5.622-1.591-6.89c-0.901-1.056-2.358-1.583-4.369-1.583
		c-1.75,0-3.458,0.369-5.128,1.104c-1.668,0.735-2.502,1.407-2.502,2.016c0,0.305,0.104,0.457,0.318,0.457c0.104,0,0.238,0,0.397,0
		c0.211,0,0.37,0,0.477,0c1.959,0,3.603,0.704,4.928,2.106c1.323,1.405,1.988,3.088,1.988,5.048c0,2.279-0.809,4.24-2.425,5.881
		c-1.616,1.643-3.51,2.464-5.682,2.464c-2.227,0-4.173-0.777-5.841-2.334c-1.67-1.558-2.504-3.604-2.504-6.136
		c0-3.167,1.537-5.805,4.61-7.916c3.443-2.375,8.212-3.563,14.306-3.563c5.669,0,10.173,1.099,13.512,3.292
		c3.338,2.195,5.007,5.355,5.007,9.481v27.21c0,1.903,0.548,2.854,1.646,2.854c0.886,0,1.723-0.873,2.506-2.623
		c0.782-1.747,1.173-3.92,1.173-6.519c0-0.369,0-0.739,0-1.11H128.611z M106.357,48.93c0-0.264-0.08-0.396-0.238-0.396
		c-0.055,0-0.345,0.291-0.874,0.872c-0.744,0.74-1.432,1.347-2.068,1.822c-1.643,1.269-2.676,2.272-3.1,3.012
		c-1.378,2.271-2.065,5.652-2.065,10.142v5.705c0.211,2.746,0.98,4.119,2.304,4.119c1.273,0,2.597-1.293,3.974-3.881
		c1.378-2.588,2.068-5.178,2.068-7.766L106.357,48.93L106.357,48.93z"/>
	<path fill="#F5D4D7" d="M184.565,75.397h-24.799v-0.953h0.956c1.8,0,2.701-1.061,2.701-3.18V40.267c0-3.92-1.271-5.881-3.815-5.881
		c-1.589,0-2.979,0.953-4.173,2.861c-1.192,1.908-1.788,4.346-1.788,7.312v27.103c0,1.854,0.715,2.782,2.145,2.782h1.511v0.953
		h-25.355v-0.953h2.385c2.542,0,3.815-1.297,3.815-3.889V36.923c0-2.273-0.903-3.412-2.703-3.412h-2.703v-1.112h20.904v5.722
		c1.43-4.715,5.59-7.074,12.479-7.074c3.602,0,6.623,1.061,9.061,3.18c2.753,2.438,4.133,5.855,4.133,10.252v26.864
		c0,2.066,0.74,3.102,2.224,3.102h3.021L184.565,75.397L184.565,75.397z"/>
	<path fill="#F5D4D7" d="M237.498,75.397h-21.141v-7.231c-1.591,5.403-5.195,8.104-10.811,8.104c-4.399,0-8.068-2.174-11.008-6.526
		c-2.941-4.353-4.411-9.528-4.411-15.526c0-5.999,1.708-11.399,5.127-16.203c3.418-4.804,7.353-7.206,11.803-7.206
		c4.77,0,7.867,2.65,9.3,7.949V17.774c0-1.536-0.506-2.782-1.512-3.735c-0.847-0.795-1.774-1.193-2.78-1.193h-3.101v-0.953h23.446
		v59.926c0,1.75,0.98,2.625,2.941,2.625h2.146L237.498,75.397L237.498,75.397z M216.357,53.261c0-6.741-0.586-11.917-1.75-15.528
		c-0.953-3.08-2.225-4.62-3.815-4.62c-1.961,0-3.152,3.16-3.575,9.477c-0.054,0.957-0.079,5.071-0.079,12.343
		c0,9.238,0.079,14.574,0.238,16.007c0.264,2.123,1.085,3.186,2.463,3.186c1.641,0,3.046-1.379,4.213-4.141
		C215.588,66.322,216.357,60.748,216.357,53.261z"/>
	<path fill="#F5D4D7" d="M282.403,51.235c0,1.272-0.715,1.908-2.145,1.908h-22.414c-0.055,0.849-0.078,1.723-0.078,2.623
		c0,7.684,0.661,12.956,1.985,15.816c1.113,2.438,3.127,3.657,6.041,3.657c4.187,0,7.815-1.643,10.89-4.928
		c2.914-3.181,4.37-6.729,4.37-10.651h1.112c0,4.292-1.51,8.082-4.53,11.366c-3.442,3.709-7.974,5.563-13.592,5.563
		c-6.834,0-12.345-2.026-16.53-6.081c-4.188-4.053-6.28-9.418-6.28-16.094c0-6.518,2.199-12.029,6.599-16.533
		c4.237-4.345,9.271-6.518,15.101-6.518c6.041,0,10.891,2.094,14.545,6.279C280.763,41.407,282.403,45.938,282.403,51.235z
		 M267.065,50.6c0-8.107-0.135-12.929-0.401-14.465c-0.374-2.437-1.497-3.656-3.366-3.656c-1.871,0-3.234,1.431-4.089,4.292
		c-0.854,3.02-1.336,8.106-1.442,15.261h7.375c0.75,0,1.2-0.026,1.363-0.08C266.877,51.792,267.065,51.342,267.065,50.6z"/>
	<path fill="#F5D4D7" d="M327.867,40.108c0,2.702-0.794,4.876-2.384,6.517c-1.59,1.644-3.497,2.464-5.723,2.464
		c-1.909,0-3.671-0.715-5.287-2.146c-1.615-1.43-2.423-3.179-2.423-5.245c0-2.331,0.729-4.239,2.186-5.723
		c1.457-1.482,3.191-2.226,5.208-2.226c1.111,0,2.17,0.2,3.178,0.597c1.005,0.397,1.481,0.596,1.432,0.596
		c0.265,0,0.397-0.132,0.397-0.397c0-0.741-0.558-1.471-1.671-2.186c-1.111-0.715-2.438-1.074-3.975-1.074
		c-2.173,0-4.025,0.823-5.562,2.464c-2.065,2.014-3.102,5.035-3.102,9.061v28.057c0,2.385,0.771,3.577,2.307,3.577h3.021v0.953
		h-28.534v-0.953h2.703c2.7,0,4.053-1.137,4.053-3.411V37.16c0-2.431-0.979-3.649-2.94-3.649h-2.701v-1.112h21.22l0.397,4.928
		c2.12-4.61,5.247-6.915,9.379-6.915c2.438,0,4.519,0.914,6.24,2.742C327.006,34.982,327.867,37.3,327.867,40.108z"/>
	<path fill="#F5D4D7" d="M360.059,75.397H332.08v-1.112h2.385c2.542,0,3.815-1.242,3.815-3.728V16.494
		c0-2.325-1.087-3.488-3.259-3.488h-2.147v-1.112h22.017v58.662c0,2.487,0.955,3.73,2.862,3.73h2.306V75.397z"/>
	<path fill="#F5D4D7" d="M414.897,75.397h-20.904v-5.724c-1.43,4.718-5.59,7.075-12.479,7.075c-3.604,0-6.623-1.061-9.061-3.174
		c-2.756-2.434-4.133-5.846-4.133-10.234V36.527c0-2.009-0.742-3.016-2.226-3.016h-3.021v-1.112h21.062v35.05
		c0,3.975,1.298,5.961,3.896,5.961c1.589,0,2.979-0.966,4.173-2.896c1.191-1.929,1.787-4.35,1.787-7.258V36.209
		c0-1.798-0.715-2.698-2.146-2.698h-1.589v-1.112h19.233v38.627c0,2.277,0.9,3.418,2.703,3.418h2.703L414.897,75.397L414.897,75.397
		z"/>
	<path fill="#F5D4D7" d="M459.564,61.171c0,5.352-2.094,9.485-6.278,12.398c-3.287,2.277-6.969,3.418-11.047,3.418
		c-2.6,0-5.617-0.584-9.062-1.748c-3.442-1.165-5.694-1.749-6.756-1.749c-2.491,0-4.001,0.795-4.53,2.385h-0.715v-20.03h0.715
		c0.688,3.657,2.772,7.684,6.261,12.083c4.226,5.404,8.61,8.105,13.153,8.105c4.49,0,6.735-2.066,6.735-6.198
		c0-3.021-2.253-5.432-6.756-7.232c-8.001-3.231-12.188-4.955-12.56-5.167c-4.558-2.808-6.835-6.941-6.835-12.4
		c0-4.238,1.854-7.761,5.563-10.57c3.498-2.649,7.631-3.975,12.398-3.975c1.854,0,4.146,0.424,6.874,1.272
		c2.73,0.848,4.359,1.271,4.892,1.271c1.8,0,2.7-0.608,2.7-1.829h0.795v14.863h-0.557c-0.636-3.284-2.146-6.385-4.53-9.299
		c-2.914-3.55-6.227-5.326-9.936-5.326c-1.854,0-3.326,0.518-4.411,1.55c-1.087,1.034-1.629,2.319-1.629,3.855
		c0,3.337,2.197,5.83,6.597,7.471c4.134,1.538,8.239,3.074,12.319,4.61C457.364,51.527,459.564,55.607,459.564,61.171z"/>
	<path fill="#F5D4D7" d="M492.15,61.012c0,10.491-4.053,15.738-12.159,15.738c-3.656,0-6.545-0.745-8.663-2.229
		c-2.333-1.593-3.498-3.902-3.498-6.929v-34.16h-4.371V32.32h2.69c4.171,0,8.075-1.51,11.718-4.53
		c3.854-3.231,5.781-6.941,5.781-11.127l1.111,0.08v15.578h7.391v1.112h-7.391V69.51c0,2.284,0.66,3.425,1.985,3.425
		c1.165,0,2.173-1.004,3.021-3.02c0.953-2.225,1.431-5.193,1.431-8.902L492.15,61.012L492.15,61.012z"/>
</g>
<g>
	<path fill="#F5D4D7" d="M193.147,89.89c-2.275,0-4.742,3.006-5.589,5.781l-1.965,6.438h-2.274c0,0,2.699-9.021,3.354-10.947
		c0.191-0.654,0.114-1.271-0.847-1.271c-2.274,0-4.704,2.892-5.628,5.705l-1.852,6.514h-2.312c0,0,2.274-7.938,2.814-9.866
		c0.617-2.159,2.392-1.968,2.392-1.968l0.038-0.152h-3.7l0.038-0.154h4.165l-1.196,4.24c1.156-2.352,3.236-4.473,5.243-4.473
		c1.541,0,3.159,1.117,2.66,2.736l-0.502,1.619c1.195-2.312,3.161-4.355,5.164-4.355c1.543,0,3.123,1.117,2.621,2.736l-2.082,7.133
		c-0.347,1.117-0.422,2.467,0.773,2.467c1.693,0,2.814-1.734,3.082-3.314l0.154,0.038c-0.31,1.618-1.463,3.431-3.236,3.431
		c-1.853,0-3.548-1.041-2.854-3.354c0,0,1.733-5.781,2.352-7.709C194.15,90.506,194.073,89.89,193.147,89.89z"/>
	<path fill="#F5D4D7" d="M212.027,89.966l-2.736,9.676c-0.27,1.116-0.385,2.467,0.812,2.467c1.693,0,2.773-1.696,3.044-3.314h0.154
		c-0.271,1.657-1.388,3.469-3.198,3.469c-2.16,0-3.394-1.388-2.854-3.546l-0.114-0.039c-1.079,1.968-2.854,3.585-4.319,3.585
		c-2.62,0-3.661-1.617-3.621-3.699c0.075-3.662,3.468-8.75,7.554-8.75c1.85,0,2.234,1.733,2.121,3.236
		c0.385-1.271,0.732-2.428,0.925-3.083L212.027,89.966L212.027,89.966z M207.596,97.481c0.27-0.963,0.654-2.158,1.001-3.431
		c0.31-1.581,0.271-4.086-1.85-4.086c-2.737,0-5.589,6.206-5.551,9.752c0,1.427,0.502,2.39,1.618,2.39
		C204.474,102.106,206.669,99.757,207.596,97.481z"/>
	<path fill="#F5D4D7" d="M214.723,102.106c0,0,2.274-7.938,2.813-9.866c0.615-2.159,2.39-1.968,2.39-1.968l0.038-0.152h-3.701
		l0.04-0.154h4.163l-1.194,4.24c1.154-2.352,3.159-4.473,5.201-4.473c1.543,0,3.124,1.117,2.622,2.736l-2.082,7.133
		c-0.348,1.116-0.462,2.467,0.771,2.467c1.657,0,2.854-1.812,3.083-3.314l0.155,0.038c-0.31,1.618-1.464,3.431-3.238,3.431
		c-1.851,0-3.546-1.041-2.852-3.354c0,0,1.732-5.781,2.352-7.709c0.192-0.654,0.115-1.271-0.812-1.271
		c-2.312,0-4.701,2.892-5.588,5.705l-1.851,6.514h-2.31V102.106z"/>
	<path fill="#F5D4D7" d="M243.433,89.966l-2.736,9.676c-0.27,1.116-0.385,2.467,0.812,2.467c1.693,0,2.774-1.696,3.044-3.314h0.154
		c-0.271,1.657-1.388,3.469-3.198,3.469c-2.16,0-3.394-1.388-2.854-3.546l-0.114-0.039c-1.079,1.968-2.854,3.585-4.319,3.585
		c-2.62,0-3.661-1.617-3.621-3.699c0.075-3.662,3.469-8.75,7.554-8.75c1.85,0,2.234,1.733,2.122,3.236
		c0.385-1.271,0.731-2.428,0.924-3.083L243.433,89.966L243.433,89.966z M239.001,97.481c0.27-0.963,0.654-2.158,1.001-3.431
		c0.31-1.581,0.272-4.086-1.85-4.086c-2.737,0-5.589,6.206-5.551,9.752c0,1.427,0.502,2.39,1.618,2.39
		C235.88,102.106,238.075,99.757,239.001,97.481z"/>
	<path fill="#F5D4D7" d="M247.052,103.495c-0.811-0.462-1.388-1.079-1.388-1.967c0-2.118,2.35-3.237,3.7-3.237
		c0.347,0,0.77,0.116,1.003,0.231v0.153c-0.309-0.114-0.733-0.229-1.08-0.229c-1.233,0-2.699,0.848-2.699,2.119
		c0,2.582,9.136,1.156,9.136,4.856c0,1.927-2.312,5.164-7.363,5.164c-2.852,0-4.432-1.387-4.432-3.083
		C243.929,106.155,244.932,104.651,247.052,103.495z M247.167,103.572c-2.08,1.118-3.084,2.622-3.084,3.932
		c0,1.619,1.503,2.931,4.277,2.931c3.625,0,6.015-1.772,6.13-3.547C254.49,104.883,249.711,104.883,247.167,103.572z
		 M261.042,89.657c0-0.731-0.499-1.581-1.771-1.581c-1.117,0-2.004,0.811-2.004,1.851c0,0.309,0.075,0.655,0.23,0.965
		c0.424,0.463,0.615,1.041,0.615,1.657c0,2.39-2.698,5.396-6.706,5.396c-2.659,0-3.777-1.271-3.777-2.774
		c0-2.39,2.699-5.435,6.669-5.435c1.35,0,2.312,0.347,2.93,0.848c-0.078-0.191-0.115-0.423-0.115-0.655
		c0-1.079,1.002-2.004,2.158-2.004c1.504,0,2.004,1.04,2.004,2.236c0,1.077-0.809,2.081-1.965,2.081
		c-0.617,0-1.002-0.426-1.002-1.156C259.462,91.431,261.042,91.084,261.042,89.657z M249.634,95.786
		c0,1.156,0.539,2.005,1.851,2.005c2.584,0,4.741-3.431,4.741-5.782c0-1.232-0.578-2.119-1.965-2.119
		C251.831,89.89,249.634,93.435,249.634,95.786z"/>
	<path fill="#F5D4D7" d="M269.944,98.601c-0.656,1.773-2.584,3.662-4.935,3.662c-2.894,0-4.048-1.695-4.048-3.815
		c0-3.662,3.469-8.636,7.862-8.636c1.813,0,2.93,0.849,2.93,2.312c0,1.734-2.237,4.355-5.782,4.355
		c-0.731,0-1.541-0.115-2.351-0.387c-0.386,1.157-0.617,2.313-0.617,3.316c0,1.58,0.58,2.697,2.006,2.697
		c2.274,0,4.162-1.89,4.779-3.584L269.944,98.601z M263.66,95.979c0.501,0.152,1.041,0.27,1.618,0.27
		c2.738,0,4.896-3.275,4.896-4.973c0-0.849-0.347-1.312-1.349-1.312C266.783,89.966,264.701,92.974,263.66,95.979z"/>
	<path fill="#F5D4D7" d="M289.905,89.89c-2.274,0-4.741,3.006-5.588,5.781l-1.965,6.438h-2.275c0,0,2.699-9.021,3.354-10.947
		c0.192-0.654,0.115-1.271-0.847-1.271c-2.274,0-4.704,2.892-5.628,5.705l-1.854,6.514h-2.312c0,0,2.274-7.938,2.813-9.866
		c0.617-2.159,2.392-1.968,2.392-1.968l0.038-0.152h-3.7l0.037-0.154h4.165l-1.196,4.24c1.156-2.352,3.236-4.473,5.243-4.473
		c1.541,0,3.159,1.117,2.659,2.736l-0.503,1.619c1.197-2.312,3.162-4.355,5.164-4.355c1.543,0,3.125,1.117,2.623,2.736l-2.082,7.133
		c-0.348,1.117-0.424,2.467,0.772,2.467c1.693,0,2.813-1.734,3.081-3.314l0.155,0.038c-0.31,1.618-1.464,3.431-3.236,3.431
		c-1.853,0-3.548-1.041-2.854-3.354c0,0,1.734-5.781,2.354-7.709C290.909,90.506,290.832,89.89,289.905,89.89z"/>
	<path fill="#F5D4D7" d="M304.894,98.601c-0.653,1.773-2.582,3.662-4.935,3.662c-2.892,0-4.047-1.695-4.047-3.815
		c0-3.662,3.468-8.636,7.862-8.636c1.812,0,2.932,0.849,2.932,2.312c0,1.734-2.236,4.355-5.783,4.355
		c-0.73,0-1.543-0.115-2.352-0.387c-0.385,1.157-0.617,2.313-0.617,3.316c0,1.58,0.579,2.697,2.005,2.697
		c2.274,0,4.163-1.89,4.779-3.584L304.894,98.601z M298.61,95.979c0.502,0.152,1.041,0.27,1.619,0.27
		c2.735,0,4.896-3.275,4.896-4.973c0-0.849-0.347-1.312-1.351-1.312C301.731,89.966,299.651,92.974,298.61,95.979z"/>
	<path fill="#F5D4D7" d="M307.78,102.106c0,0,2.273-7.938,2.813-9.866c0.616-2.159,2.391-1.968,2.391-1.968l0.039-0.152h-3.7
		l0.038-0.154h4.164l-1.196,4.24c1.156-2.352,3.161-4.473,5.204-4.473c1.541,0,3.121,1.117,2.619,2.736l-2.08,7.133
		c-0.348,1.116-0.462,2.467,0.771,2.467c1.656,0,2.853-1.812,3.084-3.314l0.152,0.038c-0.308,1.618-1.463,3.431-3.236,3.431
		c-1.85,0-3.546-1.041-2.852-3.354c0,0,1.732-5.781,2.351-7.709c0.191-0.654,0.116-1.271-0.81-1.271
		c-2.314,0-4.702,2.892-5.588,5.705l-1.854,6.514h-2.311V102.106z"/>
	<path fill="#F5D4D7" d="M331.635,90.12h-2.813l-2.734,9.482c-0.31,1.116-0.387,2.467,0.847,2.467c1.658,0,2.814-1.812,3.047-3.314
		l0.114,0.038c-0.27,1.618-1.386,3.431-3.161,3.431c-1.851,0-3.586-1.041-2.929-3.354c0,0,1.735-6.051,2.504-8.749h-1.041
		l0.04-0.154h1.041c0.077-0.271,0.152-0.54,0.232-0.731c0.692-2.274,2.695-1.928,3.272-3.816h0.117l-1.311,4.549h2.812
		L331.635,90.12z"/>
</g>
<line fill="none" stroke="#DEDEDE" stroke-width="0.5" x1="11.141" y1="96.717" x2="166.35" y2="96.717"/>
<line fill="none" stroke="#DEDEDE" stroke-width="0.5" x1="339.039" y1="96.717" x2="493.893" y2="96.717"/>
</svg>
