<?xml version="1.0" encoding="utf-8"?>
<!-- Generator: Adobe Illustrator 16.0.4, SVG Export Plug-In . SVG Version: 6.00 Build 0)  -->
<!DOCTYPE svg PUBLIC "-//W3C//DTD SVG 1.1 Tiny//EN" "http://www.w3.org/Graphics/SVG/1.1/DTD/svg11-tiny.dtd">
<svg version="1.1" baseProfile="tiny" id="Layer_2" xmlns="http://www.w3.org/2000/svg" xmlns:xlink="http://www.w3.org/1999/xlink"
	 x="0px" y="0px" width="357px" height="147px" viewBox="0 0 357 147" xml:space="preserve">
<g>
	<polygon points="27.931,116.247 24.446,127.815 20.67,116.247 20.145,116.247 17.436,130.735 18.848,130.735 20.729,120.314 
		24.367,130.94 24.503,130.94 28.044,120.306 29.973,130.735 31.381,130.735 28.443,116.247 	"/>
	<path d="M58.919,116.042l-5.887,14.693h1.722l1.107-3.167h5.961l1.034,3.167h1.707l-5.461-14.693H58.919z M56.22,126.587
		l2.707-7.692l2.481,7.692H56.22z"/>
	<polygon points="88.291,116.247 88.291,130.735 89.714,130.735 89.714,119.401 97.869,130.94 98.086,130.94 98.086,116.247 
		96.663,116.247 96.663,127.172 88.715,116.247 	"/>
	<path d="M127.699,116.042l-5.887,14.693h1.722l1.106-3.167h5.961l1.035,3.167h1.707l-5.461-14.693H127.699z M125,126.587
		l2.707-7.692l2.48,7.692H125z"/>
	<path d="M166.1,128.536l-0.08,0.078c-0.724,0.701-1.678,1.057-2.837,1.057c-1.61,0-2.903-0.565-3.844-1.681
		c-0.928-1.104-1.398-2.569-1.398-4.36c0-1.878,0.479-3.413,1.422-4.562c0.957-1.165,2.277-1.756,3.923-1.756
		c0.962,0,1.949,0.342,2.937,1.019l0.62-1.233c-0.909-0.733-2.084-1.105-3.495-1.105c-2.146,0-3.872,0.7-5.129,2.081
		c-1.264,1.389-1.904,3.23-1.904,5.476c0,2.254,0.584,4.081,1.735,5.43c1.142,1.336,2.724,2.014,4.704,2.014
		c0.894,0,1.828-0.14,2.775-0.415c0.882-0.256,1.586-0.59,2.096-0.994v-6.151h-3.604v1.218h2.08V128.536z"/>
	<polygon points="193.662,123.479 198.623,123.479 198.623,122.263 193.662,122.263 193.662,117.567 200.58,117.567 200.58,116.247 
		192.139,116.247 192.139,130.735 200.467,130.735 200.467,129.415 193.662,129.415 	"/>
	<polygon points="234.271,116.247 230.787,127.815 227.011,116.247 226.486,116.247 223.776,130.735 225.188,130.735 
		227.07,120.314 230.709,130.94 230.844,130.94 234.386,120.306 236.313,130.735 237.722,130.735 234.785,116.247 	"/>
	<polygon points="262.443,123.479 267.403,123.479 267.403,122.263 262.443,122.263 262.443,117.567 269.36,117.567 269.36,116.247 
		260.919,116.247 260.919,130.735 269.248,130.735 269.248,129.415 262.443,129.415 	"/>
	<polygon points="294.633,116.247 294.633,130.735 296.055,130.735 296.055,119.401 304.211,130.94 304.427,130.94 304.427,116.247 
		303.005,116.247 303.005,127.172 295.057,116.247 	"/>
	<polygon points="333.05,130.735 334.574,130.735 334.574,117.567 339.564,117.567 339.564,116.247 328.274,116.247 
		328.274,117.567 333.05,117.567 	"/>
	<g>
		<path d="M56.751,20.854c3.436,0,6.379,1.34,8.832,4.018c2.453,2.679,3.904,6.124,4.355,10.335
			c0.204,2.085,0.715,3.291,1.533,3.618h1.104c5.274-6.256,7.912-10.182,7.912-11.775c0-1.841-1.993-4.141-5.979-6.9
			c-3.987-2.761-8.986-4.141-14.996-4.141c-7.934,0-14.292,2.658-19.076,7.974c-4.783,5.315-7.176,11.143-7.176,17.48
			c0,3.64,0.899,7.381,2.699,11.225c1.799,3.844,5.608,8.539,11.428,14.087c5.819,5.549,9.356,9.478,10.611,11.783
			c1.254,2.31,1.881,4.485,1.881,6.527c0,3.963-1.615,7.445-4.845,10.447c-3.231,3.004-7.014,4.505-11.348,4.505
			c-3.967,0-7.187-1.206-9.66-3.618c-2.475-2.413-4.017-6.809-4.631-13.188c-0.205-2.044-0.582-3.444-1.135-4.202
			c-0.551-0.756-1.481-1.134-2.79-1.134c-0.368,0-1.8,2.085-4.293,6.256c-2.495,4.171-3.742,6.829-3.742,7.974
			c0,2.045,2.27,4.691,6.809,7.943c4.538,3.251,10.304,4.875,17.296,4.875c8.465,0,15.855-2.77,22.172-8.311
			c6.318-5.54,9.477-11.95,9.477-19.228c0-3.148-0.88-6.472-2.638-9.968s-5.73-8.191-11.916-14.089
			c-6.188-5.897-10.021-10.204-11.501-12.92c-1.48-2.716-2.221-5.258-2.221-7.628c0-3.267,1.166-6.075,3.496-8.423
			C50.74,22.029,53.521,20.854,56.751,20.854z"/>
		<path d="M328.462,92.463c-2.453,1.451-5.029,2.176-7.728,2.176c-6.911,0-11.185-3.985-12.818-11.96
			c17.99-5.273,26.986-12.144,26.986-20.607c0-3.189-1.145-5.766-3.434-7.728c-2.292-1.963-5.336-2.944-9.14-2.944
			c-7.319,0-13.984,3.507-19.995,10.519c-5.464,6.375-8.437,13.437-8.934,21.18c-3.604,3.771-6.833,6.593-9.681,8.444
			c-2.924,1.901-6.041,2.853-9.354,2.853c-3.885,0-6.992-1.451-9.322-4.355c-2.331-2.902-3.497-6.786-3.497-11.653
			c0-5.643,1.237-10.672,3.712-15.088c2.473-4.416,5.202-6.624,8.188-6.624c1.268,0,2.279,0.552,3.036,1.656
			c0.756,1.104,1.135,2.556,1.135,4.354c0,0.409-0.124,1.523-0.368,3.343c-0.245,1.819-0.369,2.894-0.369,3.22
			c0,0.818,0.286,1.228,0.86,1.228c0.408,0,1.042-0.204,1.901-0.613l7.114-3.374c1.186-0.572,1.993-1.145,2.423-1.718
			c0.429-0.572,0.645-1.431,0.645-2.576c0-3.229-1.146-5.857-3.436-7.881c-2.291-2.024-5.255-3.036-8.895-3.036
			c-7.4,0-14.279,3.69-20.638,11.07c-5.531,6.421-8.654,13.344-9.374,20.77c-4.509,4.344-7.436,7.02-8.751,7.996
			c-1.35,1.003-2.761,1.504-4.232,1.504c-1.35,0-2.422-0.512-3.219-1.534c-0.798-1.021-1.197-2.392-1.197-4.108
			c0-1.841,0.348-3.956,1.044-6.349c0.694-2.393,2.228-6.899,4.6-13.524l2.448-6.74c-2.082,0.162-6.543,0.308-8.495,0.366
			c-3.543,3.873-7.415,6.041-11.617,6.497c1.839-4.784,2.759-8.464,2.759-11.04c0-3.271-1.594-4.907-4.783-4.907
			c-3.762,0-6.717,1.789-8.863,5.367s-3.22,6.94-3.22,10.089c0,3.066,1.757,5.377,5.274,6.932c-2.187,3.228-4.607,6.268-7.237,9.143
			v-0.005l-5.156,4.846c-4.176,3.886-7.324,5.826-9.453,5.826c-2.619,0-3.929-1.922-3.929-5.769c0-2.004,0.717-5.501,2.153-10.488
			c1.434-4.988,4.079-13.637,7.934-25.943l-16.697,3.376l-8.034,26.129c-0.776,2.576-2.74,5.592-5.888,9.046
			c-3.149,3.457-5.787,5.184-7.912,5.184c-2.944,0-4.416-1.962-4.416-5.885c0.014-5.558,3.39-18.137,10.126-37.737l-16.382,3.264
			c-4.189,11.31-6.839,20.75-7.963,28.338c-4.213,4.654-7.675,6.991-10.377,6.991c-2.29,0-4.477-0.961-6.562-2.883
			c4.171-11.122,6.257-20.506,6.257-28.153c0-1.553-0.185-2.841-0.553-3.863c-0.368-1.021-1.359-1.911-2.975-2.668
			s-4.161-1.135-7.636-1.135c-9.2,0-17.112,3.343-23.736,10.028s-9.937,14.689-9.937,24.012c0,5.89,1.472,10.611,4.417,14.169
			c2.943,3.557,6.786,5.335,11.53,5.335c7.605,0,14.353-4.456,20.24-13.37c2.902,2.291,5.827,3.435,8.771,3.435
			c1.145,0,2.698-0.377,4.661-1.134c1.711-0.66,3.472-1.757,5.276-3.239c0,0.025-0.002,0.054-0.002,0.08
			c0,4.416,0.94,7.911,2.822,10.487c1.88,2.576,4.375,3.864,7.482,3.864c3.395,0,6.87-1.176,10.427-3.525
			c3.558-2.352,7.584-6.002,12.083-10.949c0,4.416,0.868,7.912,2.607,10.488c1.737,2.576,4.221,3.863,7.452,3.863
			c2.903,0,6.173-1.217,9.812-3.649c3.64-2.432,8.159-6.204,13.556-11.315v-0.001c5.683-5.644,9.854-10.916,12.512-15.824
			c3.599-0.612,6.91-1.694,9.937-3.249c-6.175,9.689-9.262,17.419-9.262,23.184c0,3.108,0.859,5.715,2.576,7.82
			s3.823,3.158,6.317,3.158c5.524,0,13.371-4.969,23.538-14.896c0.618,3.741,2.241,6.941,4.891,9.59
			c3.455,3.456,7.841,5.183,13.157,5.183c4.742,0,9.291-1.206,13.646-3.618c4.354-2.411,9.148-6.194,14.383-11.347v-0.037
			c0.666,3.827,2.244,7.054,4.754,9.667c3.412,3.557,7.9,5.335,13.462,5.335c4.988,0,9.547-1.217,13.678-3.649
			c4.129-2.432,8.791-6.204,13.984-11.315v-7.054C334.616,87.791,330.916,91.011,328.462,92.463z M107.781,72.498
			c0,5.562,1.921,10.755,5.766,15.579c-3.395,5.356-6.543,8.034-9.445,8.034c-2.331,0-4.151-1.145-5.459-3.435
			c-1.31-2.29-1.963-5.499-1.963-9.629c0-7.442,1.503-13.943,4.508-19.505c3.006-5.561,7.166-8.341,12.482-8.341
			c1.144,0,2.023,0.122,2.637,0.367C110.623,60.313,107.781,65.956,107.781,72.498z M311.105,62.47
			c2.453-4.109,5.029-6.164,7.728-6.164c2.861,0,4.293,1.963,4.293,5.888c0,7.934-5.233,13.371-15.701,16.315
			C307.425,71.926,308.651,66.579,311.105,62.47z"/>
	</g>
</g>
</svg>
