<?xml version="1.0" encoding="utf-8"?>
<!-- Generator: Adobe Illustrator 16.0.0, SVG Export Plug-In . SVG Version: 6.00 Build 0)  -->
<!DOCTYPE svg PUBLIC "-//W3C//DTD SVG 1.1//EN" "http://www.w3.org/Graphics/SVG/1.1/DTD/svg11.dtd">
<svg version="1.1" id="Layer_1" xmlns="http://www.w3.org/2000/svg" xmlns:xlink="http://www.w3.org/1999/xlink" x="0px" y="0px"
	 width="48px" height="32px" viewBox="0 0 48 32" enable-background="new 0 0 48 32" xml:space="preserve">
<path fill-rule="evenodd" clip-rule="evenodd" d="M44,8C30.666,8,17.333,8,4,8c0-1.333,0-3.667,0-5c13.333,0,26.666,0,40,0
	C44,4.333,44,6.667,44,8z"/>
<path fill-rule="evenodd" clip-rule="evenodd" d="M44,18c-13.334,0-26.667,0-40,0c0-1.334,0-3.667,0-5c13.333,0,26.666,0,40,0
	C44,14.333,44,16.666,44,18z"/>
<path fill-rule="evenodd" clip-rule="evenodd" d="M4,23c13.333,0,26.666,0,40,0c0,1.32,0,3.639,0,4.979c-13.334,0-26.667,0-40,0
	C4,26.639,4,24.32,4,23z"/>
</svg>
